<?xml version="1.0" encoding="UTF-8" standalone="no"?>
<svg
   xmlns:dc="http://purl.org/dc/elements/1.1/"
   xmlns:cc="http://creativecommons.org/ns#"
   xmlns:rdf="http://www.w3.org/1999/02/22-rdf-syntax-ns#"
   xmlns:svg="http://www.w3.org/2000/svg"
   xmlns="http://www.w3.org/2000/svg"
   xmlns:xlink="http://www.w3.org/1999/xlink"
   xmlns:sodipodi="http://sodipodi.sourceforge.net/DTD/sodipodi-0.dtd"
   xmlns:inkscape="http://www.inkscape.org/namespaces/inkscape"
   inkscape:version="1.0 (4035a4fb49, 2020-05-01)"
   sodipodi:docname="test.svg"
   xml:space="preserve"
   style="enable-background:new 0 0 511.626 511.626;"
   viewBox="0 0 511.626 511.626"
   height="511.626px"
   width="511.626px"
   y="0px"
   x="0px"
   id="Capa_1"
   version="1.1"><metadata
   id="metadata41"><rdf:RDF><cc:Work
       rdf:about=""><dc:format>image/svg+xml</dc:format><dc:type
         rdf:resource="http://purl.org/dc/dcmitype/StillImage" /><dc:title></dc:title></cc:Work></rdf:RDF></metadata><defs
   id="defs39"><linearGradient
     id="linearGradient1537"
     inkscape:collect="always"><stop
       id="stop1533"
       offset="0"
       style="stop-color:#9356dc;stop-opacity:1" /><stop
       id="stop1535"
       offset="1"
       style="stop-color:#ff79da;stop-opacity:1" /></linearGradient><linearGradient
     id="linearGradient1477"
     inkscape:collect="always"><stop
       id="stop1473"
       offset="0"
       style="stop-color:#000000;stop-opacity:1;" /><stop
       id="stop1475"
       offset="1"
       style="stop-color:#000000;stop-opacity:0;" /></linearGradient><linearGradient
     gradientUnits="userSpaceOnUse"
     y2="255.8135"
     x2="511.625"
     y1="255.8135"
     x1="0"
     id="linearGradient1479"
     xlink:href="#linearGradient1477"
     inkscape:collect="always" /><linearGradient
     gradientUnits="userSpaceOnUse"
     y2="460.81146"
     x2="234.58226"
     y1="57.775455"
     x1="309.06387"
     id="linearGradient1539"
     xlink:href="#linearGradient1537"
     inkscape:collect="always" /></defs><sodipodi:namedview
   inkscape:current-layer="Capa_1"
   inkscape:window-maximized="1"
   inkscape:window-y="-9"
   inkscape:window-x="-9"
   inkscape:cy="243.76862"
   inkscape:cx="245.02361"
   inkscape:zoom="1.4365962"
   showgrid="false"
   id="namedview37"
   inkscape:window-height="1361"
   inkscape:window-width="2560"
   inkscape:pageshadow="2"
   inkscape:pageopacity="0"
   guidetolerance="10"
   gridtolerance="10"
   objecttolerance="10"
   borderopacity="1"
   bordercolor="#666666"
   pagecolor="#ffffff" />
<g
   style="opacity:1;stroke:url(#linearGradient1479)"
   id="g4">
	<path
   sodipodi:nodetypes="cscccccccscsccccccscccc"
   style="stroke:url(#linearGradient1479);fill-opacity:1;fill:url(#linearGradient1539)"
   id="path2"
   d="M 475.366,71.949 C 451.191,48.343 417.791,36.545 375.151,36.545 c -11.8,0 -23.843,2.046 -36.117,6.136 -12.279,4.093 -23.702,9.615 -34.256,16.562 -10.568,6.945 -19.65,13.467 -27.269,19.556 -7.61,6.091 -14.845,12.564 -21.696,19.414 C 248.959,91.363 241.726,84.89 234.115,78.799 226.499,72.71 217.413,66.192 206.847,59.243 196.283,52.293 184.862,46.775 172.586,42.681 160.311,38.592 148.27,36.545 136.47,36.545 93.833,36.545 60.431,48.346 36.259,71.949 12.087,95.55 0,128.286 0,170.16 c 0,12.753 2.24,25.891 6.711,39.398 4.471,13.514 9.566,25.031 15.275,34.546 5.708,9.514 12.181,18.792 19.414,27.834 7.233,9.041 12.519,15.272 15.846,18.698 3.33,3.426 5.948,5.903 7.851,7.427 L 243.25,469.938 c 3.427,3.426 7.614,5.144 12.562,5.144 4.948,0 9.138,-1.718 12.563,-5.144 l 177.87,-171.31 c 43.588,-43.58 65.38,-86.406 65.38,-128.472 10e-4,-41.877 -12.085,-74.61 -36.259,-98.207 z" />
</g>
<g
   id="g6">
</g>
<g
   id="g8">
</g>
<g
   id="g10">
</g>
<g
   id="g12">
</g>
<g
   id="g14">
</g>
<g
   id="g16">
</g>
<g
   id="g18">
</g>
<g
   id="g20">
</g>
<g
   id="g22">
</g>
<g
   id="g24">
</g>
<g
   id="g26">
</g>
<g
   id="g28">
</g>
<g
   id="g30">
</g>
<g
   id="g32">
</g>
<g
   id="g34">
</g>
</svg>
